<svg width="277" height="28" viewBox="0 0 277 28" fill="none" xmlns="http://www.w3.org/2000/svg">
<path d="M0 24.5V0H21V3.5H24.5V10.5H21V14H24.5V21H21V24.5H0ZM7 10.5H17.5V3.5H7V10.5ZM7 21H17.5V14H7V21ZM31.5 24.5V21H28V17.5H31.5V14H45.5V10.5H31.5V7H49V10.5H52.5V24.5H31.5ZM35 21H45.5V17.5H35V21ZM66.5 24.5V10.5H59.5V7H66.5V0H73.5V7H80.5V10.5H73.5V24.5H66.5ZM94.5 24.5V10.5H87.5V7H94.5V0H101.5V7H108.5V10.5H101.5V24.5H94.5ZM115.5 24.5V21H122.5V3.5H119V0H129.5V21H136.5V24.5H115.5ZM143.5 24.5V21H140V10.5H143.5V7H161V10.5H164.5V17.5H147V21H161V24.5H143.5ZM147 14H157.5V10.5H147V14ZM168 24.5V21H185.5V17.5H171.5V14H168V10.5H171.5V7H189V10.5H175V14H189V17.5H192.5V21H189V24.5H168ZM196 24.5V0H203V7H217V10.5H220.5V24.5H213.5V10.5H203V24.5H196ZM234.5 3.5V0H241.5V3.5H234.5ZM227.5 24.5V21H234.5V10.5H231V7H241.5V21H248.5V24.5H227.5ZM252 28V7H273V10.5H276.5V17.5H273V21H259V28H252ZM259 17.5H269.5V10.5H259V17.5Z" fill="black"/>
</svg>
